<?xml version="1.0" encoding="UTF-8"?>
<svg id="mySVG" xmlns="http://www.w3.org/2000/svg" viewBox="0 0 543.8634 592.573">
  <defs>
    <style>
      .cls-1 {
        fill: #f38183;
      }

      .cls-2 {
        fill: #080808;
      }

      .cls-3 {
        fill: #3c2415;
      }

      .cls-4 {
        fill: #f9b9ba;
      }

      .cls-5 {
        fill: none;
        stroke: #231f20;
        stroke-linecap: round;
        stroke-linejoin: round;
        stroke-width: 4px;
      }
      @keyframes rotateFeet {
        0% {
          transform: rotate(10deg);
        }
        50% {
          transform: rotate(-10deg);
        }
        100% {
          transform: rotate(10deg);
        }
      }
      #Feet {
        animation: rotateFeet 2.2s infinite;
        transform-origin: center;
      }
      #mySVG:hover #Feet {
        animation: rotateFeet 8s infinite;
      }
    </style>
  </defs>
  <g id="Feet">
    <g>
      <path class="cls-4" d="m139.668,408.3793l-85.7872-29.1064s-16.4495,42.3191-6.9482,84.2234,80.4293,28.117,80.4293,28.117c0,0,27.1146,3.5745,12.3061-83.234Z"/>
      <path class="cls-4" d="m211.668,475.2729s-27.6858,106.399,53.0507,114.2208,77.805-49.7844,78.1527-68.7244,2.5838-42.4326-6.6077-61.8368"/>
      <path class="cls-4" d="m423.0723,419.6134s-14.8085,71.4894,13.7872,58.2128c0,0,68.3064,18.4746,68.2524-58.2128-.0036-5.1083,1.1944-28.0851-7.4864-48"/>
    </g>
    <g>
      <path class="cls-1" d="m47.2425,465.5708s40.9437-40.1702,96.3016-13.9574c0,0,.7196-22.8085-3.8761-43.234s-85.7872-29.1064-85.7872-29.1064c0,0-16.8511,40.3404-6.6383,86.2979Z"/>
      <path class="cls-1" d="m208.3261,537.1275s78.9217-34.1531,133.8126-5.6208c0,0,6.891-43.9784-5.875-72.5741s-124.5957,16.3404-124.5957,16.3404c0,0-8.472,47.0228-3.3419,61.8545Z"/>
      <path class="cls-1" d="m423.0723,477.8261s63.462-71.1594,81.2629-49.1116c0,0,4.0137-37.6969-6.7097-57.1012s-74.5532,48-74.5532,48c0,0-6.6383,41.8723,0,58.2128Z"/>
    </g>
    <g>
      <path class="cls-5" d="m47.2425,465.5708s9.0387,36.7309,80.2318,26.0257c6.1532-.9253,11.2756-5.2972,13.0094-11.2732,3.0593-10.5449,5.3348-31.5266-.8156-71.944"/>
      <path class="cls-5" d="m500.0084,451.6134c-17.7021,41.1915-76.6691,27.548-76.9362,26.2128"/>
      <path class="cls-5" d="m423.0723,477.8261s-8.1702-12.2553,0-58.2128"/>
      <path class="cls-5" d="m500.0084,451.6134s12.9362-40.6809-2.383-80"/>
      <path class="cls-5" d="m336.2637,458.9325c12.766,30.6383,4.1805,87.9181,4.1105,88.5612-5.0809,46.6889-58.2025,43.0111-58.2025,43.0111-64.3047,1.8702-73.8457-53.3774-73.8457-53.3774-.2254-4.1309-4.8283-26.1098,3.3419-61.8545"/>
      <path class="cls-5" d="m47.2425,465.5708c-.4099-3.9964-9.1915-44.9362,6.6383-86.2979"/>
    </g>
  </g>
  <g id="Base_Color" data-name="Base Color">
    <g>
      <path class="cls-4" d="m99.0779,4.1746c30.6945,2.5197,66.0518,32.4939,86.2834,52.7323.1163.157.2518.2919.403.4053,8.3321,8.3647,14.0275,15.0038,15.6519,17.233-1.3984,9.7817-5.2568,16.9673-11.4746,21.3647-10.1597,7.1851-24.4282,5.5215-32.0288,3.8916-2.9985-.6436-5.6094-2.5171-7.1631-5.1401-2.501-4.2241-6.5493-10.9028-11.6299-18.7314-.001-.0015-.002-.0031-.003-.0046-.0013-.0021-.0027-.0041-.004-.0062C119.6985,46.0072,93.2279,11.3859,73.7801,9.619c7.4316-4.3887,15.8945-6.2144,25.2979-5.4443Zm-43.2788,33.624c.4678-1.623.8506-3.0933,1.1704-4.4956,1.4688-6.4443,3.458-11.3311,5.9473-14.6318.8823-.9878,1.7847-1.9248,2.7085-2.813,1.437-1.1279,3.001-1.8442,4.6899-2.144,13.2701-2.3636,36.5915,20.3588,64.1301,62.3806-23.8944,9.7557-44.9052,22.7867-62.7622,38.9401.044-.3157.0222-.6447-.0959-.9647-19.6802-53.3257-17.0601-71.8608-15.7881-76.2715Zm-29.0138,356.6966c-.0861-.1454-.1778-.2857-.2635-.4315-.1108-.1882-.2533-.3439-.4089-.4806-4.5984-6.2115-8.54-13.2341-11.8-21.0741-9.1182-21.9277-9.2407-42.3105-9.2427-42.5986-.5435-12.6826,2.23-21.8281,8.2437-27.1816,5.0278-4.4766,11.8472-5.833,18.2642-5.833,3.0332,0,5.9771.3037,8.5981.7227,7.5483,1.209,14.9829,3.8291,22.0981,7.7871,64.4375,35.8438,67.5532,72.4375,58.8203,96.8242-6.1875,17.2773-24.6201,27.4639-42.8789,23.6934-1.7415-.3596-3.4505-.7625-5.1338-1.1996-5.0564-1.6067-10.4485-3.5291-16.2349-5.8658-.0532-.0215-.1077-.0304-.1614-.0471-11.8882-5.6482-21.8772-13.7663-29.9002-24.3154Zm37.4332-92.5858c-7.5234-4.1846-15.4004-6.958-23.4097-8.2402-10.5408-1.6896-19.4124-.6069-26.0095,3.1187,9.1219-13.9458,25.058-29.7057,49.863-27.6069,44.8857,3.7803,95.2393,43.0918,95.729,93.458.397,40.8262-6.3149,49.6699-25.5947,64.4531-.5283.0449-1.0464.2617-1.6646.6846-.1473.1001-11.7202,7.0806-39.337,2.1615,13.9848-2.7156,26.0912-12.4711,31.0651-26.3607,9.2554-25.8428,6.2471-64.46-60.6416-101.668Zm475.5747-29.4551c-1.192,51.358-17.7277,100.7561-41.5379,127.2902-.1921.1517-.3515.3331-.4744.5385-3.5319,3.8748-7.2191,7.2547-11.0404,10.057-8.5469,6.2686-17.374,13.8867-26.7188,21.9531-11.4689,9.8991-23.8292,20.56-37.8688,30.7643-.1871.0971-.3619.2175-.5115.3704-21.4722,15.5438-46.8851,29.9854-79.0848,38.9948-.2542-.0286-.5118-.0272-.7605.0414-.2654.0743-.5033.1989-.7063.3604-34.6323,9.4521-77.0562,12.6276-130.7523,4.2275-.1146-.0321-.2171-.0704-.3515-.0927-.1254-.0208-.2496-.0264-.3724-.0236-19.5933-3.0971-40.6785-7.7274-63.4323-14.1561-.5908-.2344-4.1982-1.6865-9.8237-4.3525-19.9078-9.4338-65.6211-34.2961-97.56-76.1656,4.7328,3.7505,10.0929,7.1665,16.1467,10.0792.1243.088.2571.1667.4045.2261.168.0679.3282.1273.4956.1945,4.8171,2.252,10.0707,4.1815,15.7987,5.7054,17.2798,5.5162,30.6224,7.2485,40.5128,7.2485,15.6172,0,22.6714-4.2773,23.2002-4.6152.6812-.0332,1.2373-.3457,1.8281-.7988,20.0737-15.3857,27.6201-25.208,27.207-67.7012-.2354-24.2051-11.8008-47.96-32.5659-66.8896-18.835-17.1699-43.8174-28.5771-66.8271-30.5156-19.3027-1.6162-36.4995,6.6211-49.7217,23.8496-5.0864,6.6289-8.6504,13.3301-10.9341,18.3486-.7832-15.3047-.9111-49.2734,9.3374-87.0693,12.6805-46.7646,44.3212-109.0029,122.9817-140.8285,4.6234,7.1716,8.3134,13.2643,10.6467,17.2045,2.1201,3.5801,5.6797,6.1362,9.7656,7.0132,8.2412,1.7686,23.7715,3.5298,35.1772-4.5366,7.3203-5.1772,11.7715-13.5342,13.23-24.8384.1182-.915.1777-1.374-7.0151-9.3687-2.0325-2.2595-4.7908-5.2374-8.1285-8.6645,8.8705-4.1577,41.142-18.0992,84.3248-22.8853,46.7842-5.1841,116.2217-.3262,181.3672,52.2607,75.2432,60.7388,84.7773,143.0908,83.7637,186.7744Z"/>
      <path class="cls-2" d="m70.0989,188.2645c-1.7456,3.9658-4.333,7.2466-7.2847,9.2383-2.6704,1.8022-5.2788,2.2939-7.3423,1.3853-4.5176-1.9893-5.4526-10.2153-2.041-17.9624v-.0005c1.7456-3.9653,4.333-7.2461,7.2847-9.2378,1.7954-1.2114,3.562-1.8306,5.1543-1.8306.7764,0,1.5117.1475,2.188.4453,2.064.9087,3.4619,3.1641,3.936,6.3511.5244,3.522-.1489,7.646-1.895,11.6113Z"/>
      <path class="cls-2" d="m215.9173,263.5814c-3.4106,7.7471-10.1108,12.6143-14.6274,10.623-2.064-.9092-3.4619-3.165-3.936-6.3516-.5244-3.5215.1489-7.6455,1.895-11.6113s4.333-7.2461,7.2852-9.2383c1.7954-1.2109,3.562-1.8311,5.1538-1.8311.7764,0,1.5117.1475,2.188.4453,4.5176,1.9902,5.4521,10.2158,2.0415,17.9639Z"/>
      <path class="cls-1" d="m355.636,241.7796c-6.0488,9.0918-12.8594,15.6318-17.4385,19.4746,11.9072-34.9873,7.0703-64.1074.627-82.7856-7.416-21.5005-18.2227-33.876-18.6699-34.3818-18.0664-20.7354-34.9414-32.6387-50.4019-35.5913,17.2407-2.4805,34.8237.4243,50.9614,8.6187,22.3457,11.3457,38.8877,31.7715,45.3848,56.0396,6.7002,25.0298,3.1797,48.1191-10.4629,68.626Z"/>
      <path class="cls-1" d="m43.928,345.6663c-.5352,6.459-4.334,11.6406-8.3228,11.3105-1.8062-.1494-3.4678-1.4277-4.6777-3.5996-1.354-2.4307-1.9482-5.5996-1.6733-8.9238s1.3818-6.3525,3.1167-8.5273c1.4478-1.8154,3.1558-2.7969,4.8472-2.7969.1196,0,.2393.0049.3589.0146,1.8062.1494,3.4678,1.4277,4.6777,3.5996,1.354,2.4297,1.9482,5.5986,1.6733,8.9229Z"/>
      <path class="cls-1" d="m83.3904,377.9857c.5181-6.2646,4.1182-11.3252,7.9624-11.3252.1196,0,.2393.0049.3594.0146,3.9771.3291,6.8857,6.0645,6.3516,12.5234s-4.3203,11.6338-8.3223,11.3105c-3.9766-.3291-6.8853-6.0645-6.3511-12.5234Z"/>
      <path class="cls-3" d="m350.7884,49.5516l9.626,2.1392c-14.4307,3.6948-44.9375,12.4663-72.6523,26.6919-1.3184-.4526-4.3613-1.5098-9.7275-3.4414,14.0547-5.9941,56.25-23.5425,72.7539-25.3896Z"/>
    </g>
  </g>
  <g id="Shadow">
    <path class="cls-1" d="m203.4979,73.4006c-.1065.7074-.2233,1.3985-.3498,2.0734-.0984.5247-.2028,1.0396-.3129,1.5451-8.5781,39.3582-52.2618,20.7534-52.2618,20.7534l-9.6132-15.2614C95.1034,8.8981,69.0551,10.336,69.0551,10.336c21.8127-16.5966,50.669-3.1456,50.669-3.1456,0,0,50.3061,23.0498,83.5505,67.6087"/>
  </g>
  <g id="Outline">
    <path class="cls-5" d="m69.7106,114.7623c-19.7872-53.617-17.234-72.6596-15.8333-77.5177.4186-1.4519.8063-2.9127,1.1421-4.386,12.3362-54.1163,58.674,7.5681,82.4227,44.16,5.0814,7.8294,9.1286,14.51,11.5874,18.6617,1.8498,3.1234,4.9148,5.3151,8.4641,6.0766,12.6332,2.7106,41.7581,5.2326,46.0043-27.6756.1307-1.0129-92.9977-111.9304-142.1584-56.6461"/>
    <path class="cls-5" d="m63.2464,303.6575c-7.0761-3.9362-14.7588-6.7334-22.7542-8.0136-16.3171-2.6127-38.8972-.1156-37.42,34.3525,0,0,0,82.4547,74.7391,97.8858,19.1928,3.9627,38.5585-6.5279,45.1658-24.9781,8.8244-24.641,6.3336-62.4971-59.7309-99.2466Z"/>
    <path class="cls-5" d="m56.0982,420.7127c53.561,21.6286,76.1656,10.0776,78.1616,8.7151,1.1346-.7745.6174.1225,1.7077-.7132,19.6775-15.082,26.8332-24.0062,26.424-66.0948-.4965-51.0708-52.0851-91.6021-97.5609-95.4319S3.0033,316.2091,3.0033,316.2091c0,0-21.4895-177.3596,134.4386-239.1905"/>
    <ellipse class="cls-5" cx="61.7649" cy="184.595" rx="17.617" ry="11.1064" transform="translate(-132.0683 166.7375) rotate(-66.2362)"/>
    <ellipse class="cls-5" cx="207.5829" cy="259.9112" rx="17.617" ry="11.1064" transform="translate(-113.9406 345.1587) rotate(-66.2362)"/>
    <path class="cls-5" d="m222.902,140.8049s5.3701-13.7881,16.9948-22.9794c3.6219-2.8638,7.8511-5.2813,12.7141-6.6964,15.3848-4.477,37.1144,1.0778,66.0357,34.2716,0,0,43.6596,49.3902,15.3191,121.5887,0,0,50.6325-32.4627,34.0643-94.3527-13.7067-51.2009-68.554-80.1593-117.9792-61.0136-.7647.2962-1.5324.6032-2.303.9213"/>
    <path class="cls-5" d="m186.9615,55.718s143.1746-74.2323,270.3235,28.406,88.0851,285.7021,30.6383,327.8298-125.617,144-342.383,82.7234c0,0-3.7517-1.4634-10.0391-4.4429-22.8611-10.8333-79.2457-41.7092-110.703-95.1558"/>
    <ellipse class="cls-5" cx="36.5911" cy="345.0602" rx="13.9574" ry="9.3617" transform="translate(-310.3109 353.0882) rotate(-85.2725)"/>
    <ellipse class="cls-5" cx="90.727" cy="378.5921" rx="13.9574" ry="9.3617" transform="translate(-294.0545 437.8082) rotate(-85.2725)"/>
    <path class="cls-5" d="m369.285,51.6134s-43.234,9.1915-81.3617,28.9362c0,0-4.0851-1.3617-15.3191-5.4468,0,0,58.2128-25.5319,78.2979-27.5745l18.383,4.0851Z"/>
    <path class="cls-5" d="m437.3701,102.1663s74.2979,38.7498,82.7234,153.2048"/>
    <path class="cls-5" d="m134.4453,463.4194s117.5631,60.0743,249.3078,4.1594"/>
  </g>
</svg>